<?xml version="1.0" encoding="utf-8"?>
<!-- Generator: Adobe Illustrator 19.1.0, SVG Export Plug-In . SVG Version: 6.00 Build 0)  -->
<svg version="1.1" id="Ebene_1" xmlns="http://www.w3.org/2000/svg" xmlns:xlink="http://www.w3.org/1999/xlink" x="0px" y="0px"
	 viewBox="0 0 64 64" style="enable-background:new 0 0 64 64;" xml:space="preserve">
<style type="text/css">
	.st0{fill:#FFFFFF;}
</style>
<rect x="0" y="0" width="64" height="64"/>
<path class="st0" d="M8,51.2v-1c0.8-0.2,1.3-0.4,1.5-0.7c0.2-0.3,0.3-0.7,0.3-1.4V15.9c0-0.7-0.1-1.2-0.4-1.5
	c-0.2-0.3-0.7-0.5-1.5-0.7v-1h14.5v1c-0.5,0.1-0.8,0.2-1,0.5c-0.2,0.3-0.4,0.6-0.4,1c0,0.2,0.1,0.5,0.3,0.9c0.1,0.2,0.2,0.3,0.2,0.4
	l10.3,20.3l10.9-20.3c0.2-0.3,0.3-0.6,0.4-0.8c0.1-0.2,0.1-0.4,0.1-0.6c0-0.4-0.1-0.7-0.3-0.9c-0.2-0.2-0.6-0.4-1.1-0.6v-1H56v1
	c-0.8,0.2-1.3,0.4-1.5,0.7c-0.2,0.3-0.3,0.8-0.3,1.4v32.3c0,0.7,0.1,1.2,0.4,1.5c0.2,0.3,0.7,0.5,1.5,0.6v1H44.4v-1
	c0.7-0.1,1.2-0.4,1.5-0.6c0.2-0.3,0.4-0.8,0.4-1.5V23.6L31.4,51L17.2,23.6v24.6c0,0.7,0.1,1.2,0.3,1.5c0.2,0.3,0.7,0.5,1.4,0.6v1H8
	L8,51.2z"/>
</svg>
